<svg width="1024" height="1152" viewBox="0 0 1024 1152" fill="none" xmlns="http://www.w3.org/2000/svg">
<g clip-path="url(#clip0_3338_330)">
<path d="M318.104 540.137H321.865V636.034H318.104V540.137Z" fill="#94E130"/>
<path d="M328.312 540.137C328.312 545.007 324.464 548.955 319.716 548.955C314.969 548.955 311.12 545.007 311.12 540.137C311.12 535.266 314.969 531.318 319.716 531.318C324.464 531.318 328.312 535.266 328.312 540.137Z" fill="#94E130"/>
<rect opacity="0.32" x="320.49" y="537.57" width="399.697" height="92.2121" fill="#94E130"/>
<path d="M723.501 626.566L719.398 626.566L719.398 532.1L723.501 532.1L723.501 626.566Z" fill="#94E130"/>
<path d="M712.365 626.566C712.365 621.768 716.563 617.879 721.742 617.879C726.921 617.879 731.12 621.768 731.12 626.566C731.12 631.363 726.921 635.252 721.742 635.252C716.563 635.252 712.365 631.363 712.365 626.566Z" fill="#94E130"/>
<path d="M374.988 476.358L362.443 472.372L388.94 428.289H404.533L374.988 476.358ZM361.74 510.359V470.965H375.34V510.359H361.74ZM362.091 476.358L332.546 428.289H348.139L374.636 472.372L362.091 476.358ZM428.532 511.766C422.67 511.766 417.433 510.476 412.821 507.897C408.288 505.239 404.731 501.605 402.152 496.993C399.573 492.382 398.283 487.067 398.283 481.048C398.283 475.03 399.533 469.715 402.035 465.103C404.614 460.492 408.17 456.896 412.704 454.317C417.237 451.659 422.435 450.33 428.297 450.33C434.159 450.33 439.357 451.659 443.891 454.317C448.424 456.896 451.941 460.492 454.443 465.103C457.022 469.715 458.312 475.03 458.312 481.048C458.312 487.067 457.061 492.382 454.56 496.993C452.059 501.605 448.541 505.239 444.008 507.897C439.474 510.476 434.316 511.766 428.532 511.766ZM428.532 499.69C431.736 499.69 434.589 498.908 437.091 497.345C439.592 495.704 441.546 493.515 442.953 490.779C444.36 487.966 445.063 484.722 445.063 481.048C445.063 477.375 444.321 474.17 442.835 471.434C441.429 468.62 439.474 466.432 436.973 464.869C434.472 463.227 431.58 462.407 428.297 462.407C425.014 462.407 422.122 463.188 419.621 464.751C417.12 466.315 415.166 468.503 413.759 471.317C412.352 474.131 411.649 477.375 411.649 481.048C411.649 484.722 412.352 487.966 413.759 490.779C415.244 493.515 417.237 495.704 419.738 497.345C422.318 498.908 425.249 499.69 428.532 499.69ZM506.622 510.359L505.919 499.573V451.737H518.933V510.359H506.622ZM466.056 481.752V451.737H479.187V481.752H466.056ZM479.187 481.752C479.187 486.363 479.734 489.959 480.829 492.538C481.923 495.117 483.408 496.915 485.284 497.931C487.238 498.947 489.466 499.455 491.967 499.455C496.422 499.534 499.861 498.088 502.284 495.117C504.707 492.147 505.919 487.887 505.919 482.338H510.843C510.843 488.513 509.905 493.828 508.029 498.283C506.232 502.66 503.652 506.021 500.291 508.366C497.008 510.633 493.022 511.766 488.332 511.766C483.721 511.766 479.734 510.828 476.374 508.952C473.091 507.076 470.55 504.145 468.753 500.159C466.955 496.173 466.056 491.053 466.056 484.8V481.752H479.187ZM539.855 479.172C539.855 472.841 541.067 467.643 543.49 463.579C545.913 459.514 549.039 456.505 552.869 454.551C556.778 452.519 560.842 451.503 565.063 451.503V464.048C561.467 464.048 558.067 464.556 554.863 465.572C551.736 466.51 549.196 468.073 547.242 470.262C545.288 472.45 544.311 475.342 544.311 478.938L539.855 479.172ZM531.179 510.359V451.737H544.311V510.359H531.179ZM360.215 617.766C356.307 617.766 352.712 617.18 349.429 616.007C346.146 614.835 343.332 613.194 340.987 611.083C338.643 608.895 336.845 606.354 335.594 603.462L346.967 598.421C348.139 600.609 349.859 602.446 352.126 603.931C354.47 605.416 357.05 606.159 359.864 606.159C362.912 606.159 365.335 605.651 367.133 604.635C369.009 603.54 369.947 602.055 369.947 600.18C369.947 598.382 369.243 597.014 367.836 596.076C366.429 595.06 364.436 594.239 361.857 593.614L356.346 592.09C350.797 590.683 346.459 588.455 343.332 585.407C340.206 582.28 338.643 578.724 338.643 574.738C338.643 568.875 340.518 564.342 344.27 561.137C348.1 557.933 353.572 556.33 360.684 556.33C364.28 556.33 367.563 556.878 370.533 557.972C373.581 558.988 376.2 560.473 378.388 562.427C380.577 564.303 382.101 566.531 382.961 569.11L372.057 574.034C371.275 572.08 369.79 570.595 367.602 569.579C365.413 568.485 362.99 567.938 360.333 567.938C357.675 567.938 355.604 568.524 354.119 569.696C352.634 570.79 351.891 572.354 351.891 574.386C351.891 575.558 352.555 576.653 353.884 577.669C355.213 578.607 357.128 579.388 359.629 580.014L366.546 581.655C370.376 582.593 373.503 584.078 375.926 586.11C378.349 588.064 380.147 590.292 381.319 592.793C382.492 595.216 383.078 597.678 383.078 600.18C383.078 603.697 382.062 606.784 380.03 609.442C378.075 612.099 375.379 614.171 371.94 615.656C368.501 617.063 364.592 617.766 360.215 617.766ZM417.292 617.766C411.586 617.766 406.505 616.476 402.05 613.897C397.673 611.239 394.195 607.605 391.616 602.993C389.114 598.382 387.864 593.067 387.864 587.048C387.864 581.03 389.153 575.715 391.733 571.103C394.312 566.492 397.829 562.896 402.285 560.317C406.818 557.659 411.977 556.33 417.761 556.33C422.998 556.33 427.727 557.698 431.947 560.434C436.168 563.091 439.49 566.96 441.913 572.041C444.414 577.122 445.665 583.179 445.665 590.214H399.588L401.347 588.572C401.347 592.168 402.128 595.294 403.692 597.952C405.255 600.531 407.326 602.524 409.906 603.931C412.485 605.338 415.338 606.042 418.464 606.042C422.06 606.042 425.03 605.26 427.375 603.697C429.72 602.055 431.557 599.945 432.885 597.366L444.492 602.29C442.851 605.416 440.741 608.152 438.161 610.497C435.66 612.842 432.651 614.64 429.134 615.89C425.694 617.141 421.747 617.766 417.292 617.766ZM402.167 581.772L400.292 580.131H433.354L431.596 581.772C431.596 578.568 430.892 575.949 429.485 573.917C428.078 571.807 426.281 570.243 424.092 569.227C421.982 568.133 419.754 567.586 417.409 567.586C415.064 567.586 412.719 568.133 410.375 569.227C408.03 570.243 406.076 571.807 404.512 573.917C402.949 575.949 402.167 578.568 402.167 581.772ZM480.812 617.766C474.794 617.766 469.479 616.476 464.867 613.897C460.256 611.239 456.621 607.605 453.963 602.993C451.384 598.382 450.094 593.067 450.094 587.048C450.094 581.03 451.384 575.715 453.963 571.103C456.621 566.492 460.216 562.896 464.75 560.317C469.361 557.659 474.637 556.33 480.578 556.33C486.362 556.33 491.599 557.737 496.288 560.551C500.978 563.287 504.456 567.234 506.723 572.393L494.53 577.083C493.279 574.503 491.364 572.432 488.785 570.869C486.205 569.305 483.274 568.524 479.992 568.524C476.787 568.524 473.934 569.344 471.433 570.986C468.932 572.549 466.978 574.738 465.571 577.552C464.164 580.287 463.46 583.453 463.46 587.048C463.46 590.644 464.164 593.848 465.571 596.662C467.056 599.398 469.049 601.586 471.55 603.228C474.129 604.791 477.021 605.573 480.226 605.573C483.509 605.573 486.44 604.752 489.019 603.111C491.599 601.391 493.514 599.085 494.764 596.193L506.958 600.883C504.691 606.198 501.213 610.341 496.523 613.311C491.911 616.281 486.674 617.766 480.812 617.766ZM541.773 617.766C535.91 617.766 530.673 616.476 526.062 613.897C521.528 611.239 517.972 607.605 515.393 602.993C512.813 598.382 511.524 593.067 511.524 587.048C511.524 581.03 512.774 575.715 515.275 571.103C517.855 566.492 521.411 562.896 525.945 560.317C530.478 557.659 535.676 556.33 541.538 556.33C547.4 556.33 552.598 557.659 557.131 560.317C561.665 562.896 565.182 566.492 567.683 571.103C570.263 575.715 571.552 581.03 571.552 587.048C571.552 593.067 570.302 598.382 567.801 602.993C565.299 607.605 561.782 611.239 557.249 613.897C552.715 616.476 547.557 617.766 541.773 617.766ZM541.773 605.69C544.977 605.69 547.83 604.908 550.331 603.345C552.833 601.704 554.787 599.515 556.193 596.779C557.6 593.966 558.304 590.722 558.304 587.048C558.304 583.375 557.561 580.17 556.076 577.434C554.669 574.62 552.715 572.432 550.214 570.869C547.713 569.227 544.821 568.407 541.538 568.407C538.255 568.407 535.363 569.188 532.862 570.751C530.361 572.315 528.407 574.503 527 577.317C525.593 580.131 524.889 583.375 524.889 587.048C524.889 590.722 525.593 593.966 527 596.779C528.485 599.515 530.478 601.704 532.979 603.345C535.559 604.908 538.49 605.69 541.773 605.69ZM580.587 616.359V557.737H592.897L593.718 568.524V616.359H580.587ZM620.332 616.359V586.345H633.463V616.359H620.332ZM620.332 586.345C620.332 581.655 619.785 578.06 618.691 575.558C617.675 572.979 616.19 571.181 614.235 570.165C612.36 569.149 610.132 568.641 607.553 568.641C603.175 568.563 599.775 570.009 597.352 572.979C594.929 575.949 593.718 580.209 593.718 585.759H588.794C588.794 579.584 589.692 574.308 591.49 569.931C593.288 565.475 595.867 562.114 599.228 559.848C602.589 557.503 606.576 556.33 611.187 556.33C615.877 556.33 619.863 557.268 623.146 559.144C626.507 561.02 629.047 563.951 630.767 567.938C632.565 571.846 633.463 576.965 633.463 583.296V586.345H620.332ZM686.745 616.359L686.159 605.455V534.289H699.173V616.359H686.745ZM667.634 617.766C662.319 617.766 657.669 616.515 653.682 614.014C649.774 611.435 646.687 607.839 644.42 603.228C642.232 598.616 641.137 593.223 641.137 587.048C641.137 580.795 642.232 575.402 644.42 570.869C646.687 566.257 649.774 562.701 653.682 560.199C657.669 557.62 662.319 556.33 667.634 556.33C672.559 556.33 676.779 557.62 680.297 560.199C683.892 562.701 686.628 566.257 688.504 570.869C690.38 575.402 691.318 580.795 691.318 587.048C691.318 593.223 690.38 598.616 688.504 603.228C686.628 607.839 683.892 611.435 680.297 614.014C676.779 616.515 672.559 617.766 667.634 617.766ZM670.917 605.807C673.887 605.807 676.506 605.026 678.773 603.462C681.117 601.821 682.915 599.593 684.166 596.779C685.495 593.966 686.159 590.722 686.159 587.048C686.159 583.375 685.495 580.131 684.166 577.317C682.915 574.503 681.117 572.315 678.773 570.751C676.506 569.188 673.848 568.407 670.8 568.407C667.674 568.407 664.899 569.188 662.476 570.751C660.053 572.315 658.138 574.503 656.731 577.317C655.402 580.131 654.699 583.375 654.62 587.048C654.699 590.722 655.402 593.966 656.731 596.779C658.138 599.593 660.053 601.821 662.476 603.462C664.977 605.026 667.791 605.807 670.917 605.807ZM338.877 722.359V640.289H352.008V711.455L351.305 722.359H338.877ZM370.533 723.766C365.609 723.766 361.349 722.515 357.753 720.014C354.236 717.435 351.539 713.839 349.663 709.228C347.788 704.616 346.85 699.223 346.85 693.048C346.85 686.795 347.788 681.402 349.663 676.869C351.539 672.257 354.236 668.701 357.753 666.199C361.349 663.62 365.609 662.33 370.533 662.33C375.848 662.33 380.459 663.62 384.368 666.199C388.354 668.701 391.441 672.257 393.63 676.869C395.896 681.402 397.03 686.795 397.03 693.048C397.03 699.223 395.896 704.616 393.63 709.228C391.441 713.839 388.354 717.435 384.368 720.014C380.459 722.515 375.848 723.766 370.533 723.766ZM367.25 711.807C370.376 711.807 373.151 711.026 375.574 709.462C377.997 707.821 379.912 705.593 381.319 702.779C382.804 699.966 383.547 696.722 383.547 693.048C383.547 689.375 382.843 686.131 381.436 683.317C380.108 680.503 378.232 678.315 375.809 676.751C373.386 675.188 370.572 674.407 367.367 674.407C364.397 674.407 361.74 675.188 359.395 676.751C357.05 678.315 355.213 680.503 353.884 683.317C352.634 686.131 352.008 689.375 352.008 693.048C352.008 696.722 352.634 699.966 353.884 702.779C355.213 705.593 357.011 707.821 359.277 709.462C361.622 711.026 364.28 711.807 367.25 711.807ZM414.593 691.172C414.593 684.841 415.804 679.643 418.227 675.579C420.65 671.514 423.777 668.505 427.607 666.551C431.515 664.519 435.579 663.503 439.8 663.503V676.048C436.204 676.048 432.804 676.556 429.6 677.572C426.473 678.51 423.933 680.073 421.979 682.262C420.025 684.45 419.048 687.342 419.048 690.938L414.593 691.172ZM405.917 722.359V663.737H419.048V722.359H405.917ZM481.923 722.359L481.337 711.338V692.228C481.337 688.241 480.907 684.919 480.047 682.262C479.266 679.526 477.937 677.455 476.061 676.048C474.263 674.563 471.84 673.82 468.792 673.82C465.978 673.82 463.516 674.407 461.406 675.579C459.295 676.751 457.498 678.588 456.013 681.089L444.523 676.869C445.773 674.289 447.415 671.905 449.447 669.717C451.557 667.45 454.176 665.652 457.302 664.324C460.507 662.995 464.337 662.33 468.792 662.33C474.498 662.33 479.266 663.464 483.096 665.73C486.926 667.919 489.74 671.085 491.537 675.227C493.413 679.37 494.351 684.372 494.351 690.234L493.999 722.359H481.923ZM465.04 723.766C458.006 723.766 452.534 722.203 448.626 719.076C444.796 715.95 442.881 711.534 442.881 705.828C442.881 699.731 444.913 695.08 448.978 691.876C453.12 688.671 458.865 687.069 466.213 687.069H481.923V697.152H470.433C465.197 697.152 461.523 697.894 459.413 699.379C457.302 700.786 456.247 702.819 456.247 705.476C456.247 707.743 457.146 709.54 458.944 710.869C460.819 712.12 463.399 712.745 466.682 712.745C469.652 712.745 472.231 712.081 474.42 710.752C476.608 709.423 478.289 707.665 479.461 705.476C480.712 703.288 481.337 700.825 481.337 698.09H485.206C485.206 706.062 483.604 712.354 480.399 716.966C477.195 721.499 472.075 723.766 465.04 723.766ZM506.124 722.359V663.737H519.138V722.359H506.124ZM512.69 652.599C510.579 652.599 508.743 651.857 507.179 650.372C505.694 648.808 504.952 646.972 504.952 644.861C504.952 642.751 505.694 640.953 507.179 639.468C508.743 637.983 510.579 637.24 512.69 637.24C514.8 637.24 516.598 637.983 518.083 639.468C519.646 640.953 520.428 642.751 520.428 644.861C520.428 646.972 519.646 648.808 518.083 650.372C516.598 651.857 514.8 652.599 512.69 652.599ZM532.269 722.359V663.737H544.58L545.401 674.524V722.359H532.269ZM572.015 722.359V692.345H585.146V722.359H572.015ZM572.015 692.345C572.015 687.655 571.468 684.06 570.374 681.558C569.357 678.979 567.872 677.181 565.918 676.165C564.042 675.149 561.815 674.641 559.235 674.641C554.858 674.563 551.458 676.009 549.035 678.979C546.612 681.949 545.401 686.209 545.401 691.759H540.476C540.476 685.584 541.375 680.308 543.173 675.931C544.971 671.475 547.55 668.114 550.911 665.848C554.272 663.503 558.258 662.33 562.87 662.33C567.56 662.33 571.546 663.268 574.829 665.144C578.19 667.02 580.73 669.951 582.45 673.938C584.247 677.846 585.146 682.965 585.146 689.296V692.345H572.015Z" fill="black"/>
<path fill-rule="evenodd" clip-rule="evenodd" d="M882.509 389.559L944.441 415.97L970.852 354.038C984.301 322.5 971.828 286.415 942.989 269.547C975.384 279.261 1010.6 263.28 1024.18 231.437L1050.59 169.505L988.659 143.095C957.122 129.645 921.036 142.119 904.168 170.958C913.882 138.562 897.901 103.346 866.058 89.7664L804.127 63.3558L777.716 125.287C764.267 156.825 776.74 192.911 805.579 209.778C773.183 200.064 737.967 216.046 724.388 247.888L697.977 309.82L759.909 336.23C791.447 349.68 827.532 337.207 844.399 308.368C834.686 340.763 850.667 375.98 882.509 389.559Z" fill="url(#paint0_linear_3338_330)"/>
<path fill-rule="evenodd" clip-rule="evenodd" d="M455.463 54.6566L438.905 116.453L359.008 95.0452L400.366 166.679L344.96 198.667L303.602 127.034L282.194 206.93L220.397 190.372L241.806 110.475L170.173 151.833L138.184 96.4271L209.818 55.0698L129.921 33.6615L146.479 -28.1354L226.376 -6.727L185.018 -78.3613L240.423 -110.349L281.781 -38.7151L303.189 -118.612L364.986 -102.054L343.578 -22.1567L415.212 -63.5149L447.2 -8.10984L375.566 33.2484L455.463 54.6566Z" fill="url(#paint1_linear_3338_330)"/>
<path d="M208.849 1247.68C257.977 1138.04 209.022 1009.32 99.4483 960.039C209.091 1009.17 337.807 960.211 387.09 850.638C337.962 960.281 386.918 1089 496.491 1138.28C386.848 1089.15 258.132 1138.11 208.849 1247.68Z" fill="url(#paint2_linear_3338_330)"/>
<g clip-path="url(#clip1_3338_330)">
<path fill-rule="evenodd" clip-rule="evenodd" d="M837.695 1008.78C888.56 1030.25 947.2 1006.42 968.671 955.557C947.2 1006.42 971.028 1065.06 1021.89 1086.53C971.028 1065.06 912.388 1088.89 890.916 1139.75C912.388 1088.89 888.56 1030.25 837.695 1008.78ZM837.695 1008.78C786.83 987.307 728.19 1011.14 706.719 1062C685.248 1112.86 709.076 1171.5 759.94 1192.98C810.805 1214.45 869.445 1190.62 890.916 1139.75C869.445 1190.62 893.273 1249.26 944.138 1270.73C995.002 1292.2 1053.64 1268.37 1075.11 1217.51C1096.59 1166.65 1072.76 1108 1021.89 1086.53C1072.76 1108 1131.4 1084.18 1152.87 1033.31C1174.34 982.447 1150.51 923.807 1099.65 902.336C1048.78 880.864 990.143 904.692 968.671 955.557C990.143 904.692 966.315 846.052 915.45 824.581C864.585 803.109 805.945 826.937 784.474 877.802C763.002 928.667 786.83 987.307 837.695 1008.78Z" fill="url(#paint3_radial_3338_330)"/>
</g>
</g>
<defs>
<linearGradient id="paint0_linear_3338_330" x1="960.563" y1="162.329" x2="953.361" y2="369.325" gradientUnits="userSpaceOnUse">
<stop stop-color="#CB98FF"/>
<stop offset="1" stop-color="#F5BFF0"/>
</linearGradient>
<linearGradient id="paint1_linear_3338_330" x1="398.001" y1="240.111" x2="-169.63" y2="-263.779" gradientUnits="userSpaceOnUse">
<stop stop-color="#94E130"/>
<stop offset="1" stop-color="#6478FF"/>
</linearGradient>
<linearGradient id="paint2_linear_3338_330" x1="387.09" y1="850.638" x2="164.759" y2="1361.45" gradientUnits="userSpaceOnUse">
<stop stop-color="#7C8EFF"/>
<stop offset="1" stop-color="#4D64FF"/>
</linearGradient>
<radialGradient id="paint3_radial_3338_330" cx="0" cy="0" r="1" gradientUnits="userSpaceOnUse" gradientTransform="translate(952.608 812.524) rotate(96.2934) scale(463.505)">
<stop stop-color="#FF7A00" stop-opacity="0.85098"/>
<stop offset="1" stop-color="#FFD919"/>
</radialGradient>
<clipPath id="clip0_3338_330">
<rect width="1024" height="1152" fill="white"/>
</clipPath>
<clipPath id="clip1_3338_330">
<rect width="399.873" height="399.873" fill="white" transform="translate(823.351 785.703) rotate(22.8859)"/>
</clipPath>
</defs>
</svg>
